PathFileType	3	(X/Y/Z)	squats_2__fused_aligned.trc
DataRate	CameraRate	NumFrames	NumMarkers	Units	OrigDataRate	OrigDataStartFrame	OrigNumFrames
100.0	100.0	6	19	mm	100.0	906	1520
Frame#	Time	pelvis			neck			head			hip_left			hip_right			knee_left			knee_right			ankle_left			ankle_right			heel_left			heel_right			toe_left			toe_right			shoulder_left			shoulder_right			elbow_left			elbow_right			wrist_left			wrist_right			
		X1	Y1	Z1	X2	Y2	Z2	X3	Y3	Z3	X4	Y4	Z4	X5	Y5	Z5	X6	Y6	Z6	X7	Y7	Z7	X8	Y8	Z8	X9	Y9	Z9	X10	Y10	Z10	X11	Y11	Z11	X12	Y12	Z12	X13	Y13	Z13	X14	Y14	Z14	X15	Y15	Z15	X16	Y16	Z16	X17	Y17	Z17	X18	Y18	Z18	X19	Y19	Z19	
906	9.05000	98.133106	501.741741	30.167921	97.808971	925.920874	-279.980362	98.723069	987.796198	-436.507598	19.501471	502.349338	30.344462	176.764741	501.134145	29.991384	-90.181879	404.761036	-349.217214	288.112775	302.609912	-288.465023	-43.838490	170.697153	-43.055423	245.654442	31.113313	-32.228432	-35.830189	144.634564	8.318609	238.004587	3.557920	18.303450	-78.451623	82.882010	-188.986795	260.092470	-69.696618	-181.014124	-76.720641	902.629854	-230.631374	272.554837	881.875784	-243.655046	-197.561194	650.136233	-207.968033	358.685426	612.574313	-251.274702	-152.160244	537.535864	-426.937573	280.285096	496.138617	-449.666616
907	9.06000	99.162040	510.539513	31.067696	98.180028	935.647249	-279.735933	99.153161	997.948773	-436.347003	20.576268	511.004090	31.253669	177.747822	510.074935	30.881717	-88.956142	407.152561	-346.196936	288.697386	309.785429	-288.248234	-44.242442	170.456366	-41.856101	246.895423	36.509210	-32.617777	-36.350839	144.099330	9.387643	239.194316	8.778495	17.875858	-78.806047	82.990102	-188.347370	262.169923	-64.175311	-181.707794	-76.365454	911.885710	-230.265942	272.945472	891.633720	-243.202415	-196.581127	658.982312	-206.800708	358.584843	622.087468	-249.361170	-150.680320	545.048511	-425.061544	281.197818	504.793938	-447.742277
908	9.07000	100.190975	519.337284	31.967470	98.551086	945.373623	-279.491503	99.583253	1008.101349	-436.186408	21.651065	519.658843	32.162876	178.730902	519.015725	31.772050	-87.730404	409.544086	-343.176659	289.281998	316.960945	-288.031444	-44.646394	170.215579	-40.656779	248.136403	41.905107	-33.007123	-36.871489	143.564095	10.456677	240.384044	13.999069	17.448267	-79.160470	83.098194	-187.707944	264.247377	-58.654004	-182.401464	-76.010267	921.141565	-229.900509	273.336107	901.391657	-242.749785	-195.601060	667.828391	-205.633382	358.484260	631.600623	-247.447639	-149.200396	552.561157	-423.185514	282.110540	513.449258	-445.817938
909	9.08000	101.219909	528.135055	32.867245	98.922143	955.099998	-279.247074	100.013346	1018.253924	-436.025814	22.725862	528.313595	33.072084	179.713982	527.956515	32.662382	-86.504666	411.935611	-340.156381	289.866610	324.136462	-287.814655	-45.050346	169.974792	-39.457457	249.377383	47.301004	-33.396468	-37.392140	143.028861	11.525712	241.573772	19.219643	17.020675	-79.514894	83.206286	-187.068519	266.324830	-53.132697	-183.095133	-75.655079	930.397421	-229.535077	273.726743	911.149593	-242.297155	-194.620993	676.674471	-204.466056	358.383677	641.113778	-245.534108	-147.720473	560.073804	-421.309484	283.023262	522.104579	-443.893599
910	9.09000	102.248843	536.932827	33.767019	99.293201	964.826373	-279.002644	100.443438	1028.406499	-435.865219	23.800659	536.968347	33.981291	180.697063	536.897306	33.552715	-85.278929	414.327136	-337.136103	290.451222	331.311979	-287.597866	-45.454298	169.734005	-38.258135	250.618364	52.696901	-33.785814	-37.912790	142.493626	12.594746	242.763500	24.440217	16.593084	-79.869318	83.314378	-186.429094	268.402283	-47.611390	-183.788803	-75.299892	939.653276	-229.169644	274.117378	920.907530	-241.844524	-193.640926	685.520550	-203.298731	358.283093	650.626933	-243.620576	-146.240549	567.586451	-419.433454	283.935984	530.759899	-441.969260
911	9.10000	103.277777	545.730598	34.666794	99.664258	974.552747	-278.758214	100.873530	1038.559075	-435.704624	24.875456	545.623099	34.890498	181.680143	545.838096	34.443048	-84.053191	416.718661	-334.115825	291.035834	338.487495	-287.381076	-45.858250	169.493218	-37.058813	251.859344	58.092798	-34.175159	-38.433441	141.958392	13.663780	243.953229	29.660792	16.165493	-80.223741	83.422470	-185.789669	270.479737	-42.090083	-184.482473	-74.944705	948.909132	-228.804211	274.508013	930.665467	-241.391894	-192.660858	694.366630	-202.131405	358.182510	660.140087	-241.707045	-144.760625	575.099097	-417.557424	284.848706	539.415219	-440.044921
